<mxfile host="app.diagrams.net" agent="Mozilla/5.0 (Windows NT 10.0; Win64; x64) AppleWebKit/537.36 (KHTML, like Gecko) Chrome/131.0.0.0 Safari/537.36" version="24.8.6">
  <diagram name="Page-1" id="E94RmT6vj7tHw_gUUZjL">
    <mxGraphModel dx="1687" dy="908" grid="1" gridSize="10" guides="1" tooltips="1" connect="1" arrows="1" fold="1" page="1" pageScale="1" pageWidth="827" pageHeight="1169" math="0" shadow="0">
      <root>
        <mxCell id="0" />
        <mxCell id="1" parent="0" />
        <mxCell id="bfRTvyOpsvccqPrukax--5" value="Role" style="swimlane;fontStyle=1;align=center;verticalAlign=top;childLayout=stackLayout;horizontal=1;startSize=26;horizontalStack=0;resizeParent=1;resizeParentMax=0;resizeLast=0;collapsible=1;marginBottom=0;whiteSpace=wrap;html=1;fillColor=#dae8fc;strokeColor=#6c8ebf;" parent="1" vertex="1">
          <mxGeometry x="90" y="870" width="445.5" height="78" as="geometry" />
        </mxCell>
        <mxCell id="bfRTvyOpsvccqPrukax--34" value="+ Id: int Primary Key&lt;div&gt;&lt;br&gt;&lt;/div&gt;" style="text;strokeColor=none;fillColor=none;align=left;verticalAlign=top;spacingLeft=4;spacingRight=4;overflow=hidden;rotatable=0;points=[[0,0.5],[1,0.5]];portConstraint=eastwest;whiteSpace=wrap;html=1;container=0;" parent="bfRTvyOpsvccqPrukax--5" vertex="1">
          <mxGeometry y="26" width="445.5" height="26" as="geometry" />
        </mxCell>
        <mxCell id="bfRTvyOpsvccqPrukax--6" value="+ Name: string (Enum: &#39;Customer&#39;, &#39;Stadium Manger&#39;, &#39;Admin&#39;)" style="text;strokeColor=none;fillColor=none;align=left;verticalAlign=top;spacingLeft=4;spacingRight=4;overflow=hidden;rotatable=0;points=[[0,0.5],[1,0.5]];portConstraint=eastwest;whiteSpace=wrap;html=1;" parent="bfRTvyOpsvccqPrukax--5" vertex="1">
          <mxGeometry y="52" width="445.5" height="26" as="geometry" />
        </mxCell>
        <mxCell id="bfRTvyOpsvccqPrukax--40" value="User" style="swimlane;fontStyle=1;align=center;verticalAlign=top;childLayout=stackLayout;horizontal=1;startSize=26;horizontalStack=0;resizeParent=1;resizeParentMax=0;resizeLast=0;collapsible=1;marginBottom=0;whiteSpace=wrap;html=1;fillColor=#f8cecc;strokeColor=#b85450;" parent="1" vertex="1">
          <mxGeometry x="210" y="600" width="229.5" height="234" as="geometry" />
        </mxCell>
        <mxCell id="bfRTvyOpsvccqPrukax--44" value="+ Id: int Primary Key&lt;div&gt;&lt;br&gt;&lt;/div&gt;" style="text;strokeColor=none;fillColor=none;align=left;verticalAlign=top;spacingLeft=4;spacingRight=4;overflow=hidden;rotatable=0;points=[[0,0.5],[1,0.5]];portConstraint=eastwest;whiteSpace=wrap;html=1;container=0;" parent="bfRTvyOpsvccqPrukax--40" vertex="1">
          <mxGeometry y="26" width="229.5" height="26" as="geometry" />
        </mxCell>
        <mxCell id="bfRTvyOpsvccqPrukax--45" value="+ RoleId : int Foreign Key to Role&lt;div&gt;&lt;br&gt;&lt;/div&gt;" style="text;strokeColor=#6c8ebf;fillColor=#dae8fc;align=left;verticalAlign=top;spacingLeft=4;spacingRight=4;overflow=hidden;rotatable=0;points=[[0,0.5],[1,0.5]];portConstraint=eastwest;whiteSpace=wrap;html=1;container=0;" parent="bfRTvyOpsvccqPrukax--40" vertex="1">
          <mxGeometry y="52" width="229.5" height="26" as="geometry" />
        </mxCell>
        <mxCell id="ugNyQJQZIIN02NgYReCT-14" value="+ LocationId : int Foreign Key to Location&lt;div&gt;&lt;br&gt;&lt;/div&gt;" style="text;strokeColor=#82b366;fillColor=#d5e8d4;align=left;verticalAlign=top;spacingLeft=4;spacingRight=4;overflow=hidden;rotatable=0;points=[[0,0.5],[1,0.5]];portConstraint=eastwest;whiteSpace=wrap;html=1;container=0;" vertex="1" parent="bfRTvyOpsvccqPrukax--40">
          <mxGeometry y="78" width="229.5" height="26" as="geometry" />
        </mxCell>
        <mxCell id="bfRTvyOpsvccqPrukax--47" value="+ FirstName: string&amp;nbsp;&lt;div&gt;&lt;br&gt;&lt;/div&gt;" style="text;strokeColor=none;fillColor=none;align=left;verticalAlign=top;spacingLeft=4;spacingRight=4;overflow=hidden;rotatable=0;points=[[0,0.5],[1,0.5]];portConstraint=eastwest;whiteSpace=wrap;html=1;container=0;" parent="bfRTvyOpsvccqPrukax--40" vertex="1">
          <mxGeometry y="104" width="229.5" height="26" as="geometry" />
        </mxCell>
        <mxCell id="bfRTvyOpsvccqPrukax--46" value="+ LastName: string&amp;nbsp;&lt;div&gt;&lt;br&gt;&lt;/div&gt;" style="text;strokeColor=none;fillColor=none;align=left;verticalAlign=top;spacingLeft=4;spacingRight=4;overflow=hidden;rotatable=0;points=[[0,0.5],[1,0.5]];portConstraint=eastwest;whiteSpace=wrap;html=1;container=0;" parent="bfRTvyOpsvccqPrukax--40" vertex="1">
          <mxGeometry y="130" width="229.5" height="26" as="geometry" />
        </mxCell>
        <mxCell id="bfRTvyOpsvccqPrukax--48" value="+ Email: string Unique&lt;div&gt;&lt;br&gt;&lt;/div&gt;" style="text;strokeColor=none;fillColor=none;align=left;verticalAlign=top;spacingLeft=4;spacingRight=4;overflow=hidden;rotatable=0;points=[[0,0.5],[1,0.5]];portConstraint=eastwest;whiteSpace=wrap;html=1;container=0;" parent="bfRTvyOpsvccqPrukax--40" vertex="1">
          <mxGeometry y="156" width="229.5" height="26" as="geometry" />
        </mxCell>
        <mxCell id="ugNyQJQZIIN02NgYReCT-13" value="+ Phone: string&lt;div&gt;&lt;br&gt;&lt;/div&gt;" style="text;strokeColor=none;fillColor=none;align=left;verticalAlign=top;spacingLeft=4;spacingRight=4;overflow=hidden;rotatable=0;points=[[0,0.5],[1,0.5]];portConstraint=eastwest;whiteSpace=wrap;html=1;container=0;" vertex="1" parent="bfRTvyOpsvccqPrukax--40">
          <mxGeometry y="182" width="229.5" height="26" as="geometry" />
        </mxCell>
        <mxCell id="bfRTvyOpsvccqPrukax--49" value="+ Password: string&amp;nbsp;&lt;div&gt;&lt;br&gt;&lt;/div&gt;" style="text;strokeColor=none;fillColor=none;align=left;verticalAlign=top;spacingLeft=4;spacingRight=4;overflow=hidden;rotatable=0;points=[[0,0.5],[1,0.5]];portConstraint=eastwest;whiteSpace=wrap;html=1;container=0;" parent="bfRTvyOpsvccqPrukax--40" vertex="1">
          <mxGeometry y="208" width="229.5" height="26" as="geometry" />
        </mxCell>
        <mxCell id="bfRTvyOpsvccqPrukax--51" value="Stadium" style="swimlane;fontStyle=1;align=center;verticalAlign=top;childLayout=stackLayout;horizontal=1;startSize=26;horizontalStack=0;resizeParent=1;resizeParentMax=0;resizeLast=0;collapsible=1;marginBottom=0;whiteSpace=wrap;html=1;fillColor=#fff2cc;strokeColor=#d6b656;" parent="1" vertex="1">
          <mxGeometry x="654.5" y="590" width="239.00000000000003" height="156" as="geometry" />
        </mxCell>
        <mxCell id="bfRTvyOpsvccqPrukax--52" value="+ Id: int Primary Key&lt;div&gt;&lt;br&gt;&lt;/div&gt;" style="text;strokeColor=none;fillColor=none;align=left;verticalAlign=top;spacingLeft=4;spacingRight=4;overflow=hidden;rotatable=0;points=[[0,0.5],[1,0.5]];portConstraint=eastwest;whiteSpace=wrap;html=1;container=0;" parent="bfRTvyOpsvccqPrukax--51" vertex="1">
          <mxGeometry y="26" width="239.00000000000003" height="26" as="geometry" />
        </mxCell>
        <mxCell id="bfRTvyOpsvccqPrukax--59" value="+ ManagerId: int Foreign Key to User&lt;div&gt;&lt;br&gt;&lt;/div&gt;" style="text;strokeColor=#b85450;fillColor=#f8cecc;align=left;verticalAlign=top;spacingLeft=4;spacingRight=4;overflow=hidden;rotatable=0;points=[[0,0.5],[1,0.5]];portConstraint=eastwest;whiteSpace=wrap;html=1;" parent="bfRTvyOpsvccqPrukax--51" vertex="1">
          <mxGeometry y="52" width="239.00000000000003" height="26" as="geometry" />
        </mxCell>
        <mxCell id="bfRTvyOpsvccqPrukax--54" value="+ LocationId: int Foreign Key to Location&lt;div&gt;&lt;br&gt;&lt;/div&gt;" style="text;strokeColor=#82b366;fillColor=#d5e8d4;align=left;verticalAlign=top;spacingLeft=4;spacingRight=4;overflow=hidden;rotatable=0;points=[[0,0.5],[1,0.5]];portConstraint=eastwest;whiteSpace=wrap;html=1;" parent="bfRTvyOpsvccqPrukax--51" vertex="1">
          <mxGeometry y="78" width="239.00000000000003" height="26" as="geometry" />
        </mxCell>
        <mxCell id="bfRTvyOpsvccqPrukax--75" value="+ Name: string" style="text;strokeColor=none;fillColor=none;align=left;verticalAlign=top;spacingLeft=4;spacingRight=4;overflow=hidden;rotatable=0;points=[[0,0.5],[1,0.5]];portConstraint=eastwest;whiteSpace=wrap;html=1;" parent="bfRTvyOpsvccqPrukax--51" vertex="1">
          <mxGeometry y="104" width="239.00000000000003" height="26" as="geometry" />
        </mxCell>
        <mxCell id="bfRTvyOpsvccqPrukax--55" value="+ Capacity: int" style="text;strokeColor=none;fillColor=none;align=left;verticalAlign=top;spacingLeft=4;spacingRight=4;overflow=hidden;rotatable=0;points=[[0,0.5],[1,0.5]];portConstraint=eastwest;whiteSpace=wrap;html=1;" parent="bfRTvyOpsvccqPrukax--51" vertex="1">
          <mxGeometry y="130" width="239.00000000000003" height="26" as="geometry" />
        </mxCell>
        <mxCell id="bfRTvyOpsvccqPrukax--63" value="Location" style="swimlane;fontStyle=1;align=center;verticalAlign=top;childLayout=stackLayout;horizontal=1;startSize=26;horizontalStack=0;resizeParent=1;resizeParentMax=0;resizeLast=0;collapsible=1;marginBottom=0;whiteSpace=wrap;html=1;fillColor=#d5e8d4;strokeColor=#82b366;" parent="1" vertex="1">
          <mxGeometry x="670" y="950" width="239.00000000000003" height="156" as="geometry" />
        </mxCell>
        <mxCell id="bfRTvyOpsvccqPrukax--69" value="+ Id: int Primary Key&lt;div&gt;&lt;br&gt;&lt;/div&gt;" style="text;strokeColor=none;fillColor=none;align=left;verticalAlign=top;spacingLeft=4;spacingRight=4;overflow=hidden;rotatable=0;points=[[0,0.5],[1,0.5]];portConstraint=eastwest;whiteSpace=wrap;html=1;container=0;" parent="bfRTvyOpsvccqPrukax--63" vertex="1">
          <mxGeometry y="26" width="239.00000000000003" height="26" as="geometry" />
        </mxCell>
        <mxCell id="bfRTvyOpsvccqPrukax--70" value="+ Adress: string&amp;nbsp;&lt;div&gt;&lt;br&gt;&lt;/div&gt;" style="text;strokeColor=none;fillColor=none;align=left;verticalAlign=top;spacingLeft=4;spacingRight=4;overflow=hidden;rotatable=0;points=[[0,0.5],[1,0.5]];portConstraint=eastwest;whiteSpace=wrap;html=1;" parent="bfRTvyOpsvccqPrukax--63" vertex="1">
          <mxGeometry y="52" width="239.00000000000003" height="26" as="geometry" />
        </mxCell>
        <mxCell id="bfRTvyOpsvccqPrukax--71" value="+ ZipCode: string&amp;nbsp;&lt;div&gt;&lt;br&gt;&lt;/div&gt;" style="text;strokeColor=none;fillColor=none;align=left;verticalAlign=top;spacingLeft=4;spacingRight=4;overflow=hidden;rotatable=0;points=[[0,0.5],[1,0.5]];portConstraint=eastwest;whiteSpace=wrap;html=1;" parent="bfRTvyOpsvccqPrukax--63" vertex="1">
          <mxGeometry y="78" width="239.00000000000003" height="26" as="geometry" />
        </mxCell>
        <mxCell id="bfRTvyOpsvccqPrukax--72" value="+ City: string" style="text;strokeColor=none;fillColor=none;align=left;verticalAlign=top;spacingLeft=4;spacingRight=4;overflow=hidden;rotatable=0;points=[[0,0.5],[1,0.5]];portConstraint=eastwest;whiteSpace=wrap;html=1;" parent="bfRTvyOpsvccqPrukax--63" vertex="1">
          <mxGeometry y="104" width="239.00000000000003" height="26" as="geometry" />
        </mxCell>
        <mxCell id="bfRTvyOpsvccqPrukax--73" value="+ Country: string&amp;nbsp;&lt;div&gt;&lt;br&gt;&lt;/div&gt;" style="text;strokeColor=none;fillColor=none;align=left;verticalAlign=top;spacingLeft=4;spacingRight=4;overflow=hidden;rotatable=0;points=[[0,0.5],[1,0.5]];portConstraint=eastwest;whiteSpace=wrap;html=1;" parent="bfRTvyOpsvccqPrukax--63" vertex="1">
          <mxGeometry y="130" width="239.00000000000003" height="26" as="geometry" />
        </mxCell>
        <mxCell id="bfRTvyOpsvccqPrukax--85" value="Category" style="swimlane;fontStyle=1;align=center;verticalAlign=top;childLayout=stackLayout;horizontal=1;startSize=26;horizontalStack=0;resizeParent=1;resizeParentMax=0;resizeLast=0;collapsible=1;marginBottom=0;whiteSpace=wrap;html=1;fillColor=#e1d5e7;strokeColor=#9673a6;" parent="1" vertex="1">
          <mxGeometry x="1030" y="590" width="240" height="156" as="geometry" />
        </mxCell>
        <mxCell id="bfRTvyOpsvccqPrukax--89" value="+ Id: int Primary Key&lt;div&gt;&lt;br&gt;&lt;/div&gt;" style="text;strokeColor=none;fillColor=none;align=left;verticalAlign=top;spacingLeft=4;spacingRight=4;overflow=hidden;rotatable=0;points=[[0,0.5],[1,0.5]];portConstraint=eastwest;whiteSpace=wrap;html=1;container=0;" parent="bfRTvyOpsvccqPrukax--85" vertex="1">
          <mxGeometry y="26" width="240" height="26" as="geometry" />
        </mxCell>
        <mxCell id="bfRTvyOpsvccqPrukax--94" value="+ StadiumId: int Foreign Key to Stadium" style="text;strokeColor=#d6b656;fillColor=#fff2cc;align=left;verticalAlign=top;spacingLeft=4;spacingRight=4;overflow=hidden;rotatable=0;points=[[0,0.5],[1,0.5]];portConstraint=eastwest;whiteSpace=wrap;html=1;container=0;" parent="bfRTvyOpsvccqPrukax--85" vertex="1">
          <mxGeometry y="52" width="240" height="26" as="geometry" />
        </mxCell>
        <mxCell id="bfRTvyOpsvccqPrukax--90" value="+ Name: string" style="text;strokeColor=none;fillColor=none;align=left;verticalAlign=top;spacingLeft=4;spacingRight=4;overflow=hidden;rotatable=0;points=[[0,0.5],[1,0.5]];portConstraint=eastwest;whiteSpace=wrap;html=1;container=0;" parent="bfRTvyOpsvccqPrukax--85" vertex="1">
          <mxGeometry y="78" width="240" height="26" as="geometry" />
        </mxCell>
        <mxCell id="bfRTvyOpsvccqPrukax--92" value="+ Capacity: int" style="text;strokeColor=none;fillColor=none;align=left;verticalAlign=top;spacingLeft=4;spacingRight=4;overflow=hidden;rotatable=0;points=[[0,0.5],[1,0.5]];portConstraint=eastwest;whiteSpace=wrap;html=1;container=0;" parent="bfRTvyOpsvccqPrukax--85" vertex="1">
          <mxGeometry y="104" width="240" height="26" as="geometry" />
        </mxCell>
        <mxCell id="bfRTvyOpsvccqPrukax--93" value="+ Price: decimal" style="text;strokeColor=none;fillColor=none;align=left;verticalAlign=top;spacingLeft=4;spacingRight=4;overflow=hidden;rotatable=0;points=[[0,0.5],[1,0.5]];portConstraint=eastwest;whiteSpace=wrap;html=1;container=0;" parent="bfRTvyOpsvccqPrukax--85" vertex="1">
          <mxGeometry y="130" width="240" height="26" as="geometry" />
        </mxCell>
        <mxCell id="bfRTvyOpsvccqPrukax--96" value="Place" style="swimlane;fontStyle=1;align=center;verticalAlign=top;childLayout=stackLayout;horizontal=1;startSize=26;horizontalStack=0;resizeParent=1;resizeParentMax=0;resizeLast=0;collapsible=1;marginBottom=0;whiteSpace=wrap;html=1;fillColor=#f5f5f5;fontColor=#333333;strokeColor=#666666;" parent="1" vertex="1">
          <mxGeometry x="1380" y="590" width="240" height="78" as="geometry" />
        </mxCell>
        <mxCell id="bfRTvyOpsvccqPrukax--97" value="+ Id: int Primary Key&lt;div&gt;&lt;br&gt;&lt;/div&gt;" style="text;strokeColor=none;fillColor=none;align=left;verticalAlign=top;spacingLeft=4;spacingRight=4;overflow=hidden;rotatable=0;points=[[0,0.5],[1,0.5]];portConstraint=eastwest;whiteSpace=wrap;html=1;container=0;" parent="bfRTvyOpsvccqPrukax--96" vertex="1">
          <mxGeometry y="26" width="240" height="26" as="geometry" />
        </mxCell>
        <mxCell id="bfRTvyOpsvccqPrukax--98" value="+ CategoryId: int Foreign Key to Category" style="text;strokeColor=#9673a6;fillColor=#e1d5e7;align=left;verticalAlign=top;spacingLeft=4;spacingRight=4;overflow=hidden;rotatable=0;points=[[0,0.5],[1,0.5]];portConstraint=eastwest;whiteSpace=wrap;html=1;container=0;" parent="bfRTvyOpsvccqPrukax--96" vertex="1">
          <mxGeometry y="52" width="240" height="26" as="geometry" />
        </mxCell>
        <mxCell id="bfRTvyOpsvccqPrukax--102" style="edgeStyle=orthogonalEdgeStyle;rounded=0;orthogonalLoop=1;jettySize=auto;html=1;entryX=1;entryY=0.5;entryDx=0;entryDy=0;endArrow=none;endFill=0;" parent="1" source="bfRTvyOpsvccqPrukax--98" target="bfRTvyOpsvccqPrukax--89" edge="1">
          <mxGeometry relative="1" as="geometry" />
        </mxCell>
        <mxCell id="bfRTvyOpsvccqPrukax--103" value="Match" style="swimlane;fontStyle=1;align=center;verticalAlign=top;childLayout=stackLayout;horizontal=1;startSize=26;horizontalStack=0;resizeParent=1;resizeParentMax=0;resizeLast=0;collapsible=1;marginBottom=0;whiteSpace=wrap;html=1;fillColor=#ffe6cc;strokeColor=#d79b00;" parent="1" vertex="1">
          <mxGeometry x="670" y="400" width="240" height="130" as="geometry" />
        </mxCell>
        <mxCell id="bfRTvyOpsvccqPrukax--109" value="+ Id: int Primary Key&lt;div&gt;&lt;br&gt;&lt;/div&gt;" style="text;strokeColor=none;fillColor=none;align=left;verticalAlign=top;spacingLeft=4;spacingRight=4;overflow=hidden;rotatable=0;points=[[0,0.5],[1,0.5]];portConstraint=eastwest;whiteSpace=wrap;html=1;container=0;" parent="bfRTvyOpsvccqPrukax--103" vertex="1">
          <mxGeometry y="26" width="240" height="26" as="geometry" />
        </mxCell>
        <mxCell id="bfRTvyOpsvccqPrukax--104" value="+ StadiumId: int Foreign Key to Stadium" style="text;strokeColor=#d6b656;fillColor=#fff2cc;align=left;verticalAlign=top;spacingLeft=4;spacingRight=4;overflow=hidden;rotatable=0;points=[[0,0.5],[1,0.5]];portConstraint=eastwest;whiteSpace=wrap;html=1;" parent="bfRTvyOpsvccqPrukax--103" vertex="1">
          <mxGeometry y="52" width="240" height="26" as="geometry" />
        </mxCell>
        <mxCell id="bfRTvyOpsvccqPrukax--112" value="+ Name: string" style="text;strokeColor=none;fillColor=none;align=left;verticalAlign=top;spacingLeft=4;spacingRight=4;overflow=hidden;rotatable=0;points=[[0,0.5],[1,0.5]];portConstraint=eastwest;whiteSpace=wrap;html=1;" parent="bfRTvyOpsvccqPrukax--103" vertex="1">
          <mxGeometry y="78" width="240" height="26" as="geometry" />
        </mxCell>
        <mxCell id="bfRTvyOpsvccqPrukax--110" value="+ MatchDate: datetime" style="text;strokeColor=none;fillColor=none;align=left;verticalAlign=top;spacingLeft=4;spacingRight=4;overflow=hidden;rotatable=0;points=[[0,0.5],[1,0.5]];portConstraint=eastwest;whiteSpace=wrap;html=1;" parent="bfRTvyOpsvccqPrukax--103" vertex="1">
          <mxGeometry y="104" width="240" height="26" as="geometry" />
        </mxCell>
        <mxCell id="bfRTvyOpsvccqPrukax--107" style="edgeStyle=orthogonalEdgeStyle;rounded=0;orthogonalLoop=1;jettySize=auto;html=1;entryX=1;entryY=0.5;entryDx=0;entryDy=0;endArrow=none;endFill=0;" parent="1" source="bfRTvyOpsvccqPrukax--94" target="bfRTvyOpsvccqPrukax--52" edge="1">
          <mxGeometry relative="1" as="geometry" />
        </mxCell>
        <mxCell id="bfRTvyOpsvccqPrukax--113" value="Reservation" style="swimlane;fontStyle=1;align=center;verticalAlign=top;childLayout=stackLayout;horizontal=1;startSize=26;horizontalStack=0;resizeParent=1;resizeParentMax=0;resizeLast=0;collapsible=1;marginBottom=0;whiteSpace=wrap;html=1;" parent="1" vertex="1">
          <mxGeometry x="995.5" y="200" width="260" height="130" as="geometry" />
        </mxCell>
        <mxCell id="bfRTvyOpsvccqPrukax--114" value="+ Id: int Primary Key&lt;div&gt;&lt;br&gt;&lt;/div&gt;" style="text;strokeColor=none;fillColor=none;align=left;verticalAlign=top;spacingLeft=4;spacingRight=4;overflow=hidden;rotatable=0;points=[[0,0.5],[1,0.5]];portConstraint=eastwest;whiteSpace=wrap;html=1;container=0;" parent="bfRTvyOpsvccqPrukax--113" vertex="1">
          <mxGeometry y="26" width="260" height="26" as="geometry" />
        </mxCell>
        <mxCell id="bfRTvyOpsvccqPrukax--139" value="+ CartId: int Foreign Key to Cart" style="text;strokeColor=#0e8088;fillColor=#b0e3e6;align=left;verticalAlign=top;spacingLeft=4;spacingRight=4;overflow=hidden;rotatable=0;points=[[0,0.5],[1,0.5]];portConstraint=eastwest;whiteSpace=wrap;html=1;" parent="bfRTvyOpsvccqPrukax--113" vertex="1">
          <mxGeometry y="52" width="260" height="26" as="geometry" />
        </mxCell>
        <mxCell id="bfRTvyOpsvccqPrukax--115" value="+ MatchId: int Foreign Key to Match" style="text;strokeColor=#d79b00;fillColor=#ffe6cc;align=left;verticalAlign=top;spacingLeft=4;spacingRight=4;overflow=hidden;rotatable=0;points=[[0,0.5],[1,0.5]];portConstraint=eastwest;whiteSpace=wrap;html=1;" parent="bfRTvyOpsvccqPrukax--113" vertex="1">
          <mxGeometry y="78" width="260" height="26" as="geometry" />
        </mxCell>
        <mxCell id="bfRTvyOpsvccqPrukax--120" value="+ PlaceId: int Foreign Key to Place" style="text;strokeColor=#36393d;fillColor=#f9f7ed;align=left;verticalAlign=top;spacingLeft=4;spacingRight=4;overflow=hidden;rotatable=0;points=[[0,0.5],[1,0.5]];portConstraint=eastwest;whiteSpace=wrap;html=1;" parent="bfRTvyOpsvccqPrukax--113" vertex="1">
          <mxGeometry y="104" width="260" height="26" as="geometry" />
        </mxCell>
        <mxCell id="bfRTvyOpsvccqPrukax--123" style="edgeStyle=orthogonalEdgeStyle;rounded=0;orthogonalLoop=1;jettySize=auto;html=1;entryX=1;entryY=0.5;entryDx=0;entryDy=0;endArrow=none;endFill=0;" parent="1" source="bfRTvyOpsvccqPrukax--115" target="bfRTvyOpsvccqPrukax--109" edge="1">
          <mxGeometry relative="1" as="geometry" />
        </mxCell>
        <mxCell id="bfRTvyOpsvccqPrukax--131" style="edgeStyle=orthogonalEdgeStyle;rounded=0;orthogonalLoop=1;jettySize=auto;html=1;entryX=0;entryY=0.5;entryDx=0;entryDy=0;endArrow=none;endFill=0;" parent="1" source="bfRTvyOpsvccqPrukax--104" target="bfRTvyOpsvccqPrukax--52" edge="1">
          <mxGeometry relative="1" as="geometry">
            <Array as="points">
              <mxPoint x="620" y="465" />
              <mxPoint x="620" y="629" />
            </Array>
          </mxGeometry>
        </mxCell>
        <mxCell id="ugNyQJQZIIN02NgYReCT-30" style="edgeStyle=orthogonalEdgeStyle;rounded=0;orthogonalLoop=1;jettySize=auto;html=1;entryX=1;entryY=0.5;entryDx=0;entryDy=0;endArrow=none;endFill=0;" edge="1" parent="1" source="bfRTvyOpsvccqPrukax--137" target="bfRTvyOpsvccqPrukax--44">
          <mxGeometry relative="1" as="geometry">
            <Array as="points">
              <mxPoint x="510" y="135" />
              <mxPoint x="510" y="639" />
            </Array>
          </mxGeometry>
        </mxCell>
        <mxCell id="bfRTvyOpsvccqPrukax--137" value="Cart" style="swimlane;fontStyle=1;align=center;verticalAlign=top;childLayout=stackLayout;horizontal=1;startSize=26;horizontalStack=0;resizeParent=1;resizeParentMax=0;resizeLast=0;collapsible=1;marginBottom=0;whiteSpace=wrap;html=1;fillColor=#b0e3e6;strokeColor=#0e8088;swimlaneLine=1;" parent="1" vertex="1">
          <mxGeometry x="106.5" y="70" width="307.5" height="78" as="geometry" />
        </mxCell>
        <mxCell id="bfRTvyOpsvccqPrukax--138" value="+ Id: int Primary Key&lt;div&gt;&lt;br&gt;&lt;/div&gt;" style="text;strokeColor=none;fillColor=none;align=left;verticalAlign=top;spacingLeft=4;spacingRight=4;overflow=hidden;rotatable=0;points=[[0,0.5],[1,0.5]];portConstraint=eastwest;whiteSpace=wrap;html=1;container=0;" parent="bfRTvyOpsvccqPrukax--137" vertex="1">
          <mxGeometry y="26" width="307.5" height="26" as="geometry" />
        </mxCell>
        <mxCell id="bfRTvyOpsvccqPrukax--122" value="+ CustomerId: int Foreign Key to User" style="text;strokeColor=#b85450;fillColor=#f8cecc;align=left;verticalAlign=top;spacingLeft=4;spacingRight=4;overflow=hidden;rotatable=0;points=[[0,0.5],[1,0.5]];portConstraint=eastwest;whiteSpace=wrap;html=1;" parent="bfRTvyOpsvccqPrukax--137" vertex="1">
          <mxGeometry y="52" width="307.5" height="26" as="geometry" />
        </mxCell>
        <mxCell id="bfRTvyOpsvccqPrukax--149" style="edgeStyle=orthogonalEdgeStyle;rounded=0;orthogonalLoop=1;jettySize=auto;html=1;entryX=1;entryY=0.5;entryDx=0;entryDy=0;endArrow=none;endFill=0;" parent="1" source="bfRTvyOpsvccqPrukax--139" target="bfRTvyOpsvccqPrukax--138" edge="1">
          <mxGeometry relative="1" as="geometry" />
        </mxCell>
        <mxCell id="ugNyQJQZIIN02NgYReCT-37" style="edgeStyle=orthogonalEdgeStyle;rounded=0;orthogonalLoop=1;jettySize=auto;html=1;exitX=1;exitY=0.5;exitDx=0;exitDy=0;entryX=1;entryY=0.5;entryDx=0;entryDy=0;endArrow=none;endFill=0;" edge="1" parent="1" source="cj4HnGWfGCbjvm7Y0j-x-3" target="bfRTvyOpsvccqPrukax--44">
          <mxGeometry relative="1" as="geometry">
            <Array as="points">
              <mxPoint x="510" y="341" />
              <mxPoint x="510" y="639" />
            </Array>
          </mxGeometry>
        </mxCell>
        <mxCell id="cj4HnGWfGCbjvm7Y0j-x-3" value="Invoice" style="swimlane;fontStyle=1;align=center;verticalAlign=top;childLayout=stackLayout;horizontal=1;startSize=26;horizontalStack=0;resizeParent=1;resizeParentMax=0;resizeLast=0;collapsible=1;marginBottom=0;whiteSpace=wrap;html=1;swimlaneLine=1;fillColor=#9eb1ff;strokeColor=#006EAF;fontColor=#ffffff;" parent="1" vertex="1">
          <mxGeometry x="106.5" y="250" width="310" height="260" as="geometry" />
        </mxCell>
        <mxCell id="cj4HnGWfGCbjvm7Y0j-x-4" value="+ Id: int Primary Key&lt;div&gt;&lt;br&gt;&lt;/div&gt;" style="text;strokeColor=none;fillColor=none;align=left;verticalAlign=top;spacingLeft=4;spacingRight=4;overflow=hidden;rotatable=0;points=[[0,0.5],[1,0.5]];portConstraint=eastwest;whiteSpace=wrap;html=1;container=0;" parent="cj4HnGWfGCbjvm7Y0j-x-3" vertex="1">
          <mxGeometry y="26" width="310" height="26" as="geometry" />
        </mxCell>
        <mxCell id="cj4HnGWfGCbjvm7Y0j-x-8" value="+ CartId: int Foreign Key to Cart" style="text;strokeColor=#0e8088;fillColor=#b0e3e6;align=left;verticalAlign=top;spacingLeft=4;spacingRight=4;overflow=hidden;rotatable=0;points=[[0,0.5],[1,0.5]];portConstraint=eastwest;whiteSpace=wrap;html=1;" parent="cj4HnGWfGCbjvm7Y0j-x-3" vertex="1">
          <mxGeometry y="52" width="310" height="26" as="geometry" />
        </mxCell>
        <mxCell id="cj4HnGWfGCbjvm7Y0j-x-10" value="+ AdminId: int Foreign Key to User" style="text;strokeColor=#36393d;fillColor=#ffcccc;align=left;verticalAlign=top;spacingLeft=4;spacingRight=4;overflow=hidden;rotatable=0;points=[[0,0.5],[1,0.5]];portConstraint=eastwest;whiteSpace=wrap;html=1;" parent="cj4HnGWfGCbjvm7Y0j-x-3" vertex="1">
          <mxGeometry y="78" width="310" height="26" as="geometry" />
        </mxCell>
        <mxCell id="cj4HnGWfGCbjvm7Y0j-x-6" value="+ Status: string (Enum: &#39;Pending&#39;, &#39;Paid&#39;, &#39;Cancelled&#39;)" style="text;align=left;verticalAlign=top;spacingLeft=4;spacingRight=4;overflow=hidden;rotatable=0;points=[[0,0.5],[1,0.5]];portConstraint=eastwest;whiteSpace=wrap;html=1;" parent="cj4HnGWfGCbjvm7Y0j-x-3" vertex="1">
          <mxGeometry y="104" width="310" height="26" as="geometry" />
        </mxCell>
        <mxCell id="cj4HnGWfGCbjvm7Y0j-x-7" value="+ InvoiceDate : datetime" style="text;align=left;verticalAlign=top;spacingLeft=4;spacingRight=4;overflow=hidden;rotatable=0;points=[[0,0.5],[1,0.5]];portConstraint=eastwest;whiteSpace=wrap;html=1;" parent="cj4HnGWfGCbjvm7Y0j-x-3" vertex="1">
          <mxGeometry y="130" width="310" height="26" as="geometry" />
        </mxCell>
        <mxCell id="ugNyQJQZIIN02NgYReCT-53" value="+ Currency: string (default = &quot;€&quot;)" style="text;align=left;verticalAlign=top;spacingLeft=4;spacingRight=4;overflow=hidden;rotatable=0;points=[[0,0.5],[1,0.5]];portConstraint=eastwest;whiteSpace=wrap;html=1;" vertex="1" parent="cj4HnGWfGCbjvm7Y0j-x-3">
          <mxGeometry y="156" width="310" height="26" as="geometry" />
        </mxCell>
        <mxCell id="ugNyQJQZIIN02NgYReCT-52" value="+ Amount: decimal" style="text;align=left;verticalAlign=top;spacingLeft=4;spacingRight=4;overflow=hidden;rotatable=0;points=[[0,0.5],[1,0.5]];portConstraint=eastwest;whiteSpace=wrap;html=1;" vertex="1" parent="cj4HnGWfGCbjvm7Y0j-x-3">
          <mxGeometry y="182" width="310" height="26" as="geometry" />
        </mxCell>
        <mxCell id="ugNyQJQZIIN02NgYReCT-51" value="+ TaxeAmount: decimal" style="text;align=left;verticalAlign=top;spacingLeft=4;spacingRight=4;overflow=hidden;rotatable=0;points=[[0,0.5],[1,0.5]];portConstraint=eastwest;whiteSpace=wrap;html=1;" vertex="1" parent="cj4HnGWfGCbjvm7Y0j-x-3">
          <mxGeometry y="208" width="310" height="26" as="geometry" />
        </mxCell>
        <mxCell id="cj4HnGWfGCbjvm7Y0j-x-9" value="+ TotalAmount: decimal" style="text;align=left;verticalAlign=top;spacingLeft=4;spacingRight=4;overflow=hidden;rotatable=0;points=[[0,0.5],[1,0.5]];portConstraint=eastwest;whiteSpace=wrap;html=1;" parent="cj4HnGWfGCbjvm7Y0j-x-3" vertex="1">
          <mxGeometry y="234" width="310" height="26" as="geometry" />
        </mxCell>
        <mxCell id="ugNyQJQZIIN02NgYReCT-1" style="edgeStyle=orthogonalEdgeStyle;rounded=0;orthogonalLoop=1;jettySize=auto;html=1;entryX=0;entryY=0.5;entryDx=0;entryDy=0;endArrow=none;endFill=0;" edge="1" parent="1" source="bfRTvyOpsvccqPrukax--45" target="bfRTvyOpsvccqPrukax--5">
          <mxGeometry relative="1" as="geometry">
            <Array as="points">
              <mxPoint x="40" y="665" />
              <mxPoint x="40" y="909" />
            </Array>
          </mxGeometry>
        </mxCell>
        <mxCell id="ugNyQJQZIIN02NgYReCT-5" style="edgeStyle=orthogonalEdgeStyle;rounded=0;orthogonalLoop=1;jettySize=auto;html=1;entryX=1;entryY=0.5;entryDx=0;entryDy=0;endArrow=none;endFill=0;" edge="1" parent="1" source="bfRTvyOpsvccqPrukax--120" target="bfRTvyOpsvccqPrukax--97">
          <mxGeometry relative="1" as="geometry">
            <Array as="points">
              <mxPoint x="1650" y="317" />
              <mxPoint x="1650" y="629" />
            </Array>
          </mxGeometry>
        </mxCell>
        <mxCell id="ugNyQJQZIIN02NgYReCT-17" value="&lt;b&gt;&lt;font style=&quot;font-size: 14px;&quot;&gt;0...*&lt;/font&gt;&lt;/b&gt;" style="edgeLabel;html=1;align=center;verticalAlign=middle;resizable=0;points=[];" vertex="1" connectable="0" parent="ugNyQJQZIIN02NgYReCT-5">
          <mxGeometry x="-0.5086" y="-3" relative="1" as="geometry">
            <mxPoint x="-164" y="-18" as="offset" />
          </mxGeometry>
        </mxCell>
        <mxCell id="ugNyQJQZIIN02NgYReCT-6" style="edgeStyle=orthogonalEdgeStyle;rounded=0;orthogonalLoop=1;jettySize=auto;html=1;entryX=1;entryY=0.5;entryDx=0;entryDy=0;endArrow=none;endFill=0;" edge="1" parent="1" source="bfRTvyOpsvccqPrukax--54" target="bfRTvyOpsvccqPrukax--69">
          <mxGeometry relative="1" as="geometry">
            <Array as="points">
              <mxPoint x="960" y="681" />
              <mxPoint x="960" y="989" />
            </Array>
          </mxGeometry>
        </mxCell>
        <mxCell id="ugNyQJQZIIN02NgYReCT-7" style="edgeStyle=orthogonalEdgeStyle;rounded=0;orthogonalLoop=1;jettySize=auto;html=1;entryX=0;entryY=0.5;entryDx=0;entryDy=0;endArrow=none;endFill=0;" edge="1" parent="1" source="cj4HnGWfGCbjvm7Y0j-x-8" target="bfRTvyOpsvccqPrukax--138">
          <mxGeometry relative="1" as="geometry">
            <Array as="points">
              <mxPoint x="40" y="315" />
              <mxPoint x="40" y="109" />
            </Array>
          </mxGeometry>
        </mxCell>
        <mxCell id="ugNyQJQZIIN02NgYReCT-15" style="edgeStyle=orthogonalEdgeStyle;rounded=0;orthogonalLoop=1;jettySize=auto;html=1;entryX=0;entryY=0.5;entryDx=0;entryDy=0;endArrow=none;endFill=0;" edge="1" parent="1" source="ugNyQJQZIIN02NgYReCT-14" target="bfRTvyOpsvccqPrukax--69">
          <mxGeometry relative="1" as="geometry">
            <Array as="points">
              <mxPoint x="590" y="691" />
              <mxPoint x="590" y="989" />
            </Array>
          </mxGeometry>
        </mxCell>
        <mxCell id="ugNyQJQZIIN02NgYReCT-18" value="&lt;font style=&quot;font-size: 14px;&quot;&gt;&lt;b style=&quot;&quot;&gt;1&lt;/b&gt;&lt;/font&gt;" style="edgeLabel;html=1;align=center;verticalAlign=middle;resizable=0;points=[];" vertex="1" connectable="0" parent="1">
          <mxGeometry x="1390" y="430" as="geometry">
            <mxPoint x="243" y="184" as="offset" />
          </mxGeometry>
        </mxCell>
        <mxCell id="ugNyQJQZIIN02NgYReCT-19" value="&lt;b&gt;&lt;font style=&quot;font-size: 14px;&quot;&gt;1&lt;/font&gt;&lt;/b&gt;" style="edgeLabel;html=1;align=center;verticalAlign=middle;resizable=0;points=[];" vertex="1" connectable="0" parent="1">
          <mxGeometry x="1220.0006896551727" y="430.0044827586207" as="geometry">
            <mxPoint x="61" y="184" as="offset" />
          </mxGeometry>
        </mxCell>
        <mxCell id="ugNyQJQZIIN02NgYReCT-20" value="&lt;b&gt;&lt;font style=&quot;font-size: 14px;&quot;&gt;1...*&lt;/font&gt;&lt;/b&gt;" style="edgeLabel;html=1;align=center;verticalAlign=middle;resizable=0;points=[];" vertex="1" connectable="0" parent="1">
          <mxGeometry x="1300.0006896551727" y="460.0044827586207" as="geometry">
            <mxPoint x="61" y="184" as="offset" />
          </mxGeometry>
        </mxCell>
        <mxCell id="ugNyQJQZIIN02NgYReCT-21" value="&lt;b&gt;&lt;font style=&quot;font-size: 14px;&quot;&gt;1&lt;/font&gt;&lt;/b&gt;" style="edgeLabel;html=1;align=center;verticalAlign=middle;resizable=0;points=[];" vertex="1" connectable="0" parent="1">
          <mxGeometry x="840.0006896551727" y="430.0044827586207" as="geometry">
            <mxPoint x="61" y="184" as="offset" />
          </mxGeometry>
        </mxCell>
        <mxCell id="ugNyQJQZIIN02NgYReCT-22" value="&lt;b&gt;&lt;font style=&quot;font-size: 14px;&quot;&gt;1...*&lt;/font&gt;&lt;/b&gt;" style="edgeLabel;html=1;align=center;verticalAlign=middle;resizable=0;points=[];" vertex="1" connectable="0" parent="1">
          <mxGeometry x="950.0006896551727" y="460.0044827586207" as="geometry">
            <mxPoint x="61" y="184" as="offset" />
          </mxGeometry>
        </mxCell>
        <mxCell id="ugNyQJQZIIN02NgYReCT-23" value="&lt;b&gt;&lt;font style=&quot;font-size: 14px;&quot;&gt;1&lt;/font&gt;&lt;/b&gt;" style="edgeLabel;html=1;align=center;verticalAlign=middle;resizable=0;points=[];" vertex="1" connectable="0" parent="1">
          <mxGeometry x="1270" y="312" as="geometry">
            <mxPoint x="-348" y="116" as="offset" />
          </mxGeometry>
        </mxCell>
        <mxCell id="ugNyQJQZIIN02NgYReCT-24" value="&lt;b&gt;&lt;font style=&quot;font-size: 14px;&quot;&gt;0...*&lt;/font&gt;&lt;/b&gt;" style="edgeLabel;html=1;align=center;verticalAlign=middle;resizable=0;points=[];" vertex="1" connectable="0" parent="1">
          <mxGeometry x="1320" y="190" as="geometry">
            <mxPoint x="-348" y="116" as="offset" />
          </mxGeometry>
        </mxCell>
        <mxCell id="ugNyQJQZIIN02NgYReCT-25" value="&lt;b&gt;&lt;font style=&quot;font-size: 14px;&quot;&gt;1&lt;/font&gt;&lt;/b&gt;" style="edgeLabel;html=1;align=center;verticalAlign=middle;resizable=0;points=[];" vertex="1" connectable="0" parent="1">
          <mxGeometry x="1290" y="280" as="geometry">
            <mxPoint x="-652" y="338" as="offset" />
          </mxGeometry>
        </mxCell>
        <mxCell id="ugNyQJQZIIN02NgYReCT-26" value="&lt;b&gt;&lt;font style=&quot;font-size: 14px;&quot;&gt;0...*&lt;/font&gt;&lt;/b&gt;" style="edgeLabel;html=1;align=center;verticalAlign=middle;resizable=0;points=[];" vertex="1" connectable="0" parent="1">
          <mxGeometry x="1300" y="140" as="geometry">
            <mxPoint x="-652" y="338" as="offset" />
          </mxGeometry>
        </mxCell>
        <mxCell id="ugNyQJQZIIN02NgYReCT-27" value="&lt;b&gt;&lt;font style=&quot;font-size: 14px;&quot;&gt;1&lt;/font&gt;&lt;/b&gt;" style="edgeLabel;html=1;align=center;verticalAlign=middle;resizable=0;points=[];" vertex="1" connectable="0" parent="1">
          <mxGeometry x="990" y="1010" as="geometry">
            <mxPoint x="-56" y="-35" as="offset" />
          </mxGeometry>
        </mxCell>
        <mxCell id="ugNyQJQZIIN02NgYReCT-28" value="&lt;b&gt;&lt;font style=&quot;font-size: 14px;&quot;&gt;0...*&lt;/font&gt;&lt;/b&gt;" style="edgeLabel;html=1;align=center;verticalAlign=middle;resizable=0;points=[];" vertex="1" connectable="0" parent="1">
          <mxGeometry x="980" y="730" as="geometry">
            <mxPoint x="-56" y="-35" as="offset" />
          </mxGeometry>
        </mxCell>
        <mxCell id="ugNyQJQZIIN02NgYReCT-31" style="edgeStyle=orthogonalEdgeStyle;rounded=0;orthogonalLoop=1;jettySize=auto;html=1;entryX=1;entryY=0.5;entryDx=0;entryDy=0;endArrow=none;endFill=0;" edge="1" parent="1" source="bfRTvyOpsvccqPrukax--59" target="bfRTvyOpsvccqPrukax--44">
          <mxGeometry relative="1" as="geometry">
            <Array as="points">
              <mxPoint x="510" y="655" />
              <mxPoint x="510" y="639" />
            </Array>
          </mxGeometry>
        </mxCell>
        <mxCell id="ugNyQJQZIIN02NgYReCT-32" value="&lt;b&gt;&lt;font style=&quot;font-size: 14px;&quot;&gt;1&lt;/font&gt;&lt;/b&gt;" style="edgeLabel;html=1;align=center;verticalAlign=middle;resizable=0;points=[];" vertex="1" connectable="0" parent="1">
          <mxGeometry x="960" y="717" as="geometry">
            <mxPoint x="-897" y="177" as="offset" />
          </mxGeometry>
        </mxCell>
        <mxCell id="ugNyQJQZIIN02NgYReCT-33" value="&lt;b&gt;&lt;font style=&quot;font-size: 14px;&quot;&gt;0...*&lt;/font&gt;&lt;/b&gt;" style="edgeLabel;html=1;align=center;verticalAlign=middle;resizable=0;points=[];" vertex="1" connectable="0" parent="1">
          <mxGeometry x="1080" y="470" as="geometry">
            <mxPoint x="-897" y="177" as="offset" />
          </mxGeometry>
        </mxCell>
        <mxCell id="ugNyQJQZIIN02NgYReCT-35" value="&lt;b&gt;&lt;font style=&quot;font-size: 14px;&quot;&gt;0...*&lt;/font&gt;&lt;/b&gt;" style="edgeLabel;html=1;align=center;verticalAlign=middle;resizable=0;points=[];" vertex="1" connectable="0" parent="1">
          <mxGeometry x="970" y="250" as="geometry" />
        </mxCell>
        <mxCell id="ugNyQJQZIIN02NgYReCT-36" value="&lt;b&gt;&lt;font style=&quot;font-size: 14px;&quot;&gt;1&lt;/font&gt;&lt;/b&gt;" style="edgeLabel;html=1;align=center;verticalAlign=middle;resizable=0;points=[];" vertex="1" connectable="0" parent="1">
          <mxGeometry x="970" y="265" as="geometry">
            <mxPoint x="-542" y="-171" as="offset" />
          </mxGeometry>
        </mxCell>
        <mxCell id="ugNyQJQZIIN02NgYReCT-38" value="&lt;b&gt;&lt;font style=&quot;font-size: 14px;&quot;&gt;0...1&lt;/font&gt;&lt;/b&gt;" style="edgeLabel;html=1;align=center;verticalAlign=middle;resizable=0;points=[];" vertex="1" connectable="0" parent="1">
          <mxGeometry x="740" y="320" as="geometry">
            <mxPoint x="-669" y="-20" as="offset" />
          </mxGeometry>
        </mxCell>
        <mxCell id="ugNyQJQZIIN02NgYReCT-39" value="&lt;b&gt;&lt;font style=&quot;font-size: 14px;&quot;&gt;1&lt;/font&gt;&lt;/b&gt;" style="edgeLabel;html=1;align=center;verticalAlign=middle;resizable=0;points=[];" vertex="1" connectable="0" parent="1">
          <mxGeometry x="1063" y="260" as="geometry">
            <mxPoint x="-979" y="-166" as="offset" />
          </mxGeometry>
        </mxCell>
        <mxCell id="ugNyQJQZIIN02NgYReCT-41" value="&lt;b&gt;&lt;font style=&quot;font-size: 14px;&quot;&gt;0...*&lt;/font&gt;&lt;/b&gt;" style="edgeLabel;html=1;align=center;verticalAlign=middle;resizable=0;points=[];" vertex="1" connectable="0" parent="1">
          <mxGeometry x="1170" y="240" as="geometry">
            <mxPoint x="-733" y="86" as="offset" />
          </mxGeometry>
        </mxCell>
        <mxCell id="ugNyQJQZIIN02NgYReCT-42" value="&lt;b&gt;&lt;font style=&quot;font-size: 14px;&quot;&gt;1&lt;/font&gt;&lt;/b&gt;" style="edgeLabel;html=1;align=center;verticalAlign=middle;resizable=0;points=[];" vertex="1" connectable="0" parent="1">
          <mxGeometry x="1270" y="312" as="geometry">
            <mxPoint x="-820" y="310" as="offset" />
          </mxGeometry>
        </mxCell>
        <mxCell id="ugNyQJQZIIN02NgYReCT-44" value="&lt;b&gt;&lt;font style=&quot;font-size: 14px;&quot;&gt;0...*&lt;/font&gt;&lt;/b&gt;" style="edgeLabel;html=1;align=center;verticalAlign=middle;resizable=0;points=[];" vertex="1" connectable="0" parent="1">
          <mxGeometry x="1255.5" y="290" as="geometry">
            <mxPoint x="-822" y="-144" as="offset" />
          </mxGeometry>
        </mxCell>
        <mxCell id="ugNyQJQZIIN02NgYReCT-45" value="&lt;b&gt;&lt;font style=&quot;font-size: 14px;&quot;&gt;1...*&lt;/font&gt;&lt;/b&gt;" style="edgeLabel;html=1;align=center;verticalAlign=middle;resizable=0;points=[];" vertex="1" connectable="0" parent="1">
          <mxGeometry x="1282.5" y="312" as="geometry">
            <mxPoint x="-656" y="357" as="offset" />
          </mxGeometry>
        </mxCell>
        <mxCell id="ugNyQJQZIIN02NgYReCT-46" value="&lt;b&gt;&lt;font style=&quot;font-size: 14px;&quot;&gt;0...1&lt;/font&gt;&lt;/b&gt;" style="edgeLabel;html=1;align=center;verticalAlign=middle;resizable=0;points=[];" vertex="1" connectable="0" parent="1">
          <mxGeometry x="1255.5" y="440" as="geometry">
            <mxPoint x="-610" y="532" as="offset" />
          </mxGeometry>
        </mxCell>
        <mxCell id="ugNyQJQZIIN02NgYReCT-48" value="&lt;b&gt;&lt;font style=&quot;font-size: 14px;&quot;&gt;0...*&lt;/font&gt;&lt;/b&gt;" style="edgeLabel;html=1;align=center;verticalAlign=middle;resizable=0;points=[];" vertex="1" connectable="0" parent="1">
          <mxGeometry x="1070" y="170" as="geometry">
            <mxPoint x="-610" y="532" as="offset" />
          </mxGeometry>
        </mxCell>
        <mxCell id="ugNyQJQZIIN02NgYReCT-49" value="&lt;b&gt;PDF Invoices will be stored in SharePoint&lt;/b&gt;" style="html=1;whiteSpace=wrap;fillColor=#60a917;fontColor=#ffffff;strokeColor=#2D7600;" vertex="1" parent="1">
          <mxGeometry x="103" y="535" width="313.5" height="50" as="geometry" />
        </mxCell>
        <mxCell id="ugNyQJQZIIN02NgYReCT-56" style="edgeStyle=orthogonalEdgeStyle;rounded=0;orthogonalLoop=1;jettySize=auto;html=1;entryX=0;entryY=0.5;entryDx=0;entryDy=0;shape=flexArrow;" edge="1" parent="1" source="cj4HnGWfGCbjvm7Y0j-x-9" target="ugNyQJQZIIN02NgYReCT-49">
          <mxGeometry relative="1" as="geometry">
            <Array as="points">
              <mxPoint x="50" y="497" />
              <mxPoint x="50" y="560" />
            </Array>
          </mxGeometry>
        </mxCell>
      </root>
    </mxGraphModel>
  </diagram>
</mxfile>
